<svg width="1665" height="705" viewBox="0 0 1665 705" fill="none" xmlns="http://www.w3.org/2000/svg">
<g clip-path="url(#clip0_5726_3444)">
<path d="M-63.5 0L-63.5 704M0.500008 0V0.5M0.500008 0.5V64.5M0.500008 0.5H-32M0.500008 0.5H64.5M0.500008 64.5L0.5 128.5M0.500008 64.5H-32M0.500008 64.5H64.5M0.5 128.5V192.5M0.5 128.5H-32M0.5 128.5H64.5M0.5 192.5L0.499996 256.5M0.5 192.5H-32M0.5 192.5H64.5M0.499996 256.5L0.499992 320.5M0.499996 256.5H-32M0.499996 256.5H64.5M0.499992 320.5V384.5M0.499992 320.5H-32M0.499992 320.5H64.5M0.499992 384.5L0.499989 448.5M0.499992 384.5H-32M0.499992 384.5H64.5M0.499989 448.5L0.499985 512.5M0.499989 448.5H-32M0.499989 448.5H64.5M0.499985 512.5L0.499981 576.5M0.499985 512.5H-32M0.499985 512.5H64.5M0.499981 576.5V640.5M0.499981 576.5H-32M0.499981 576.5H64.5M0.499981 640.5L0.499977 704M0.499981 640.5H-32M0.499981 640.5H64.5M64.5 0V0.5M64.5 0.5V64.5M64.5 0.5H128.5M64.5 64.5L64.5 128.5M64.5 64.5H128.5M64.5 128.5V192.5M64.5 128.5H128.5M64.5 192.5V256.5M64.5 192.5H128.5M64.5 256.5V320.5M64.5 256.5H128.5M64.5 320.5L64.5 384.5M64.5 320.5H128.5M64.5 384.5V448.5M64.5 384.5H128.5M64.5 448.5V512.5M64.5 448.5H128.5M64.5 512.5V576.5M64.5 512.5H128.5M64.5 576.5L64.5 640.5M64.5 576.5H128.5M64.5 640.5V704M64.5 640.5H128.5M128.5 0V0.5M128.5 0.5V64.5M128.5 0.5H192.5M128.5 64.5V128.5M128.5 64.5H192.5M128.5 128.5L128.5 192.5M128.5 128.5H192.5M128.5 192.5V256.5M128.5 192.5H192.5M128.5 256.5V320.5M128.5 256.5H192.5M128.5 320.5V384.5M128.5 320.5H192.5M128.5 384.5V448.5M128.5 384.5H192.5M128.5 448.5V512.5M128.5 448.5H192.5M128.5 512.5L128.5 576.5M128.5 512.5H192.5M128.5 576.5V640.5M128.5 576.5H192.5M128.5 640.5V704M128.5 640.5H192.5M192.5 0V0.5M192.5 0.5V64.5M192.5 0.5H256.5M192.5 64.5V128.5M192.5 64.5H256.5M192.5 128.5V192.5M192.5 128.5H256.5M192.5 192.5V256.5M192.5 192.5H256.5M192.5 256.5V320.5M192.5 256.5H256.5M192.5 320.5L192.5 384.5M192.5 320.5H256.5M192.5 384.5V448.5M192.5 384.5H256.5M192.5 448.5V512.5M192.5 448.5H256.5M192.5 512.5V576.5M192.5 512.5H256.5M192.5 576.5V640.5M192.5 576.5H256.5M192.5 640.5V704M192.5 640.5H256.5M256.5 0V0.5M256.5 0.5V64.5M256.5 0.5H320.5M256.5 64.5V128.5M256.5 64.5H320.5M256.5 128.5V192.5M256.5 128.5H320.5M256.5 192.5V256.5M256.5 192.5H320.5M256.5 256.5V320.5M256.5 256.5H320.5M256.5 320.5L256.5 384.5M256.5 320.5H320.5M256.5 384.5V448.5M256.5 384.5H320.5M256.5 448.5V512.5M256.5 448.5H320.5M256.5 512.5V576.5M256.5 512.5H320.5M256.5 576.5V640.5M256.5 576.5H320.5M256.5 640.5V704M256.5 640.5H320.5M320.5 0V0.5M320.5 0.5V64.5M320.5 0.5H384.5M320.5 64.5V128.5M320.5 64.5H384.5M320.5 128.5V192.5M320.5 128.5H384.5M320.5 192.5V256.5M320.5 192.5H384.5M320.5 256.5V320.5M320.5 256.5H384.5M320.5 320.5L320.5 384.5M320.5 320.5H384.5M320.5 384.5V448.5M320.5 384.5H384.5M320.5 448.5V512.5M320.5 448.5H384.5M320.5 512.5V576.5M320.5 512.5H384.5M320.5 576.5V640.5M320.5 576.5H384.5M320.5 640.5V704M320.5 640.5H384.5M384.5 0V0.5M384.5 0.5V64.5M384.5 0.5H448.5M384.5 64.5V128.5M384.5 64.5H448.5M384.5 128.5V192.5M384.5 128.5H448.5M384.5 192.5V256.5M384.5 192.5H448.5M384.5 256.5V320.5M384.5 256.5H448.5M384.5 320.5L384.5 384.5M384.5 320.5H448.5M384.5 384.5V448.5M384.5 384.5H448.5M384.5 448.5V512.5M384.5 448.5H448.5M384.5 512.5V576.5M384.5 512.5H448.5M384.5 576.5V640.5M384.5 576.5H448.5M384.5 640.5V704M384.5 640.5H448.5M448.5 0V0.5M448.5 0.5V64.5M448.5 0.5H512.5M448.5 64.5V128.5M448.5 64.5H512.5M448.5 128.5V192.5M448.5 128.5H512.5M448.5 192.5V256.5M448.5 192.5H512.5M448.5 256.5V320.5M448.5 256.5H512.5M448.5 320.5V384.5M448.5 320.5H512.5M448.5 384.5V448.5M448.5 384.5H512.5M448.5 448.5V512.5M448.5 448.5H512.5M448.5 512.5V576.5M448.5 512.5H512.5M448.5 576.5V640.5M448.5 576.5H512.5M448.5 640.5V704M448.5 640.5H512.5M512.5 0V0.5M512.5 0.5V64.5M512.5 0.5H576.5M512.5 64.5V128.5M512.5 64.5H576.5M512.5 128.5V192.5M512.5 128.5H576.5M512.5 192.5V256.5M512.5 192.5H576.5M512.5 256.5V320.5M512.5 256.5H576.5M512.5 320.5V384.5M512.5 320.5H576.5M512.5 384.5V448.5M512.5 384.5H576.5M512.5 448.5V512.5M512.5 448.5H576.5M512.5 512.5V576.5M512.5 512.5H576.5M512.5 576.5V640.5M512.5 576.5H576.5M512.5 640.5V704M512.5 640.5H576.5M576.5 0V0.5M576.5 0.5V64.5M576.5 0.5H640.5M576.5 64.5V128.5M576.5 64.5H640.5M576.5 128.5V192.5M576.5 128.5H640.5M576.5 192.5V256.5M576.5 192.5H640.5M576.5 256.5V320.5M576.5 256.5H640.5M576.5 320.5V384.5M576.5 320.5H640.5M576.5 384.5V448.5M576.5 384.5H640.5M576.5 448.5V512.5M576.5 448.5H640.5M576.5 512.5V576.5M576.5 512.5H640.5M576.5 576.5V640.5M576.5 576.5H640.5M576.5 640.5V704M576.5 640.5H640.5M640.5 0V0.5M640.5 0.5V64.5M640.5 0.5H704.5M640.5 64.5V128.5M640.5 64.5H704.5M640.5 128.5V192.5M640.5 128.5H704.5M640.5 192.5V256.5M640.5 192.5H704.5M640.5 256.5V320.5M640.5 256.5H704.5M640.5 320.5V384.5M640.5 320.5H704.5M640.5 384.5V448.5M640.5 384.5H704.5M640.5 448.5V512.5M640.5 448.5H704.5M640.5 512.5V576.5M640.5 512.5H704.5M640.5 576.5V640.5M640.5 576.5H704.5M640.5 640.5V704M640.5 640.5H704.5M704.5 0V0.5M704.5 0.5V64.5M704.5 0.5H768.5M704.5 64.5V128.5M704.5 64.5H768.5M704.5 128.5V192.5M704.5 128.5H768.5M704.5 192.5V256.5M704.5 192.5H768.5M704.5 256.5V320.5M704.5 256.5H768.5M704.5 320.5V384.5M704.5 320.5H768.5M704.5 384.5V448.5M704.5 384.5H768.5M704.5 448.5V512.5M704.5 448.5H768.5M704.5 512.5V576.5M704.5 512.5H768.5M704.5 576.5V640.5M704.5 576.5H768.5M704.5 640.5V704M704.5 640.5H768.5M768.5 0V0.5M768.5 0.5V64.5M768.5 0.5H832.5M768.5 64.5V128.5M768.5 64.5H832.5M768.5 128.5V192.5M768.5 128.5H832.5M768.5 192.5V256.5M768.5 192.5H832.5M768.5 256.5V320.5M768.5 256.5H832.5M768.5 320.5V384.5M768.5 320.5H832.5M768.5 384.5V448.5M768.5 384.5H832.5M768.5 448.5V512.5M768.5 448.5H832.5M768.5 512.5V576.5M768.5 512.5H832.5M768.5 576.5V640.5M768.5 576.5H832.5M768.5 640.5V704M768.5 640.5H832.5M832.5 0V0.5M832.5 0.5V64.5M832.5 0.5H896.5M832.5 64.5V128.5M832.5 64.5H896.5M832.5 128.5V192.5M832.5 128.5H896.5M832.5 192.5V256.5M832.5 192.5H896.5M832.5 256.5V320.5M832.5 256.5H896.5M832.5 320.5V384.5M832.5 320.5H896.5M832.5 384.5V448.5M832.5 384.5H896.5M832.5 448.5V512.5M832.5 448.5H896.5M832.5 512.5V576.5M832.5 512.5H896.5M832.5 576.5V640.5M832.5 576.5H896.5M832.5 640.5V704M832.5 640.5H896.5M896.5 0V0.5M896.5 0.5V64.5M896.5 0.5H960.5M896.5 64.5V128.5M896.5 64.5H960.5M896.5 128.5V192.5M896.5 128.5H960.5M896.5 192.5V256.5M896.5 192.5H960.5M896.5 256.5V320.5M896.5 256.5H960.5M896.5 320.5V384.5M896.5 320.5H960.5M896.5 384.5V448.5M896.5 384.5H960.5M896.5 448.5V512.5M896.5 448.5H960.5M896.5 512.5V576.5M896.5 512.5H960.5M896.5 576.5V640.5M896.5 576.5H960.5M896.5 640.5V704M896.5 640.5H960.5M960.5 0V0.5M960.5 0.5V64.5M960.5 0.5H1024.5M960.5 64.5V128.5M960.5 64.5H1024.5M960.5 128.5V192.5M960.5 128.5H1024.5M960.5 192.5V256.5M960.5 192.5H1024.5M960.5 256.5V320.5M960.5 256.5H1024.5M960.5 320.5V384.5M960.5 320.5H1024.5M960.5 384.5V448.5M960.5 384.5H1024.5M960.5 448.5V512.5M960.5 448.5H1024.5M960.5 512.5V576.5M960.5 512.5H1024.5M960.5 576.5V640.5M960.5 576.5H1024.5M960.5 640.5V704M960.5 640.5H1024.5M1024.5 0V0.5M1024.5 0.5V64.5M1024.5 0.5H1088.5M1024.5 64.5V128.5M1024.5 64.5H1088.5M1024.5 128.5V192.5M1024.5 128.5H1088.5M1024.5 192.5V256.5M1024.5 192.5H1088.5M1024.5 256.5V320.5M1024.5 256.5H1088.5M1024.5 320.5V384.5M1024.5 320.5H1088.5M1024.5 384.5V448.5M1024.5 384.5H1088.5M1024.5 448.5V512.5M1024.5 448.5H1088.5M1024.5 512.5V576.5M1024.5 512.5H1088.5M1024.5 576.5V640.5M1024.5 576.5H1088.5M1024.5 640.5V704M1024.5 640.5H1088.5M1088.5 0V0.5M1088.5 0.5V64.5M1088.5 0.5H1152.5M1088.5 64.5V128.5M1088.5 64.5H1152.5M1088.5 128.5V192.5M1088.5 128.5H1152.5M1088.5 192.5V256.5M1088.5 192.5H1152.5M1088.5 256.5V320.5M1088.5 256.5H1152.5M1088.5 320.5V384.5M1088.5 320.5H1152.5M1088.5 384.5V448.5M1088.5 384.5H1152.5M1088.5 448.5V512.5M1088.5 448.5H1152.5M1088.5 512.5V576.5M1088.5 512.5H1152.5M1088.5 576.5V640.5M1088.5 576.5H1152.5M1088.5 640.5V704M1088.5 640.5H1152.5M1152.5 0V0.5M1152.5 0.5V64.5M1152.5 0.5H1216.5M1152.5 64.5V128.5M1152.5 64.5H1216.5M1152.5 128.5V192.5M1152.5 128.5H1216.5M1152.5 192.5V256.5M1152.5 192.5H1216.5M1152.5 256.5V320.5M1152.5 256.5H1216.5M1152.5 320.5V384.5M1152.5 320.5H1216.5M1152.5 384.5V448.5M1152.5 384.5H1216.5M1152.5 448.5V512.5M1152.5 448.5H1216.5M1152.5 512.5V576.5M1152.5 512.5H1216.5M1152.5 576.5V640.5M1152.5 576.5H1216.5M1152.5 640.5V704M1152.5 640.5H1216.5M1216.5 0V0.5M1216.5 0.5V64.5M1216.5 0.5H1280.5M1216.5 64.5V128.5M1216.5 64.5H1280.5M1216.5 128.5V192.5M1216.5 128.5H1280.5M1216.5 192.5V256.5M1216.5 192.5H1280.5M1216.5 256.5V320.5M1216.5 256.5H1280.5M1216.5 320.5V384.5M1216.5 320.5H1280.5M1216.5 384.5V448.5M1216.5 384.5H1280.5M1216.5 448.5V512.5M1216.5 448.5H1280.5M1216.5 512.5V576.5M1216.5 512.5H1280.5M1216.5 576.5V640.5M1216.5 576.5H1280.5M1216.5 640.5V704M1216.5 640.5H1280.5M1280.5 0V0.5M1280.5 0.5V64.5M1280.5 0.5H1344.5M1280.5 64.5V128.5M1280.5 64.5H1344.5M1280.5 128.5V192.5M1280.5 128.5H1344.5M1280.5 192.5V256.5M1280.5 192.5H1344.5M1280.5 256.5V320.5M1280.5 256.5H1344.5M1280.5 320.5V384.5M1280.5 320.5H1344.5M1280.5 384.5V448.5M1280.5 384.5H1344.5M1280.5 448.5V512.5M1280.5 448.5H1344.5M1280.5 512.5V576.5M1280.5 512.5H1344.5M1280.5 576.5V640.5M1280.5 576.5H1344.5M1280.5 640.5V704M1280.5 640.5H1344.5M1344.5 0V0.5M1344.5 0.5V64.5M1344.5 0.5H1408.5M1344.5 64.5V128.5M1344.5 64.5H1408.5M1344.5 128.5V192.5M1344.5 128.5H1408.5M1344.5 192.5V256.5M1344.5 192.5H1408.5M1344.5 256.5V320.5M1344.5 256.5H1408.5M1344.5 320.5V384.5M1344.5 320.5H1408.5M1344.5 384.5V448.5M1344.5 384.5H1408.5M1344.5 448.5V512.5M1344.5 448.5H1408.5M1344.5 512.5V576.5M1344.5 512.5H1408.5M1344.5 576.5V640.5M1344.5 576.5H1408.5M1344.5 640.5V704M1344.5 640.5H1408.5M1408.5 0V0.5M1408.5 0.5V64.5M1408.5 0.5H1472.5M1408.5 64.5V128.5M1408.5 64.5H1472.5M1408.5 128.5V192.5M1408.5 128.5H1472.5M1408.5 192.5V256.5M1408.5 192.5H1472.5M1408.5 256.5V320.5M1408.5 256.5H1472.5M1408.5 320.5V384.5M1408.5 320.5H1472.5M1408.5 384.5V448.5M1408.5 384.5H1472.5M1408.5 448.5V512.5M1408.5 448.5H1472.5M1408.5 512.5V576.5M1408.5 512.5H1472.5M1408.5 576.5V640.5M1408.5 576.5H1472.5M1408.5 640.5V704M1408.5 640.5H1472.5M1472.5 0V0.5M1472.5 0.5V64.5M1472.5 0.5H1536.5M1472.5 64.5V128.5M1472.5 64.5H1536.5M1472.5 128.5V192.5M1472.5 128.5H1536.5M1472.5 192.5V256.5M1472.5 192.5H1536.5M1472.5 256.5V320.5M1472.5 256.5H1536.5M1472.5 320.5V384.5M1472.5 320.5H1536.5M1472.5 384.5V448.5M1472.5 384.5H1536.5M1472.5 448.5V512.5M1472.5 448.5H1536.5M1472.5 512.5V576.5M1472.5 512.5H1536.5M1472.5 576.5V640.5M1472.5 576.5H1536.5M1472.5 640.5V704M1472.5 640.5H1536.5M1536.5 0V0.5M1536.5 0.5V64.5M1536.5 0.5H1600.5M1536.5 64.5V128.5M1536.5 64.5H1600.5M1536.5 128.5V192.5M1536.5 128.5H1600.5M1536.5 192.5V256.5M1536.5 192.5H1600.5M1536.5 256.5V320.5M1536.5 256.5H1600.5M1536.5 320.5V384.5M1536.5 320.5H1600.5M1536.5 384.5V448.5M1536.5 384.5H1600.5M1536.5 448.5V512.5M1536.5 448.5H1600.5M1536.5 512.5V576.5M1536.5 512.5H1600.5M1536.5 576.5V640.5M1536.5 576.5H1600.5M1536.5 640.5V704M1536.5 640.5H1600.5M1600.5 0V0.5M1600.5 0.5V64.5M1600.5 0.5H1664.5M1600.5 64.5V128.5M1600.5 64.5H1664.5M1600.5 128.5V192.5M1600.5 128.5H1664.5M1600.5 192.5V256.5M1600.5 192.5H1664.5M1600.5 256.5V320.5M1600.5 256.5H1664.5M1600.5 320.5V384.5M1600.5 320.5H1664.5M1600.5 384.5V448.5M1600.5 384.5H1664.5M1600.5 448.5V512.5M1600.5 448.5H1664.5M1600.5 512.5V576.5M1600.5 512.5H1664.5M1600.5 576.5V640.5M1600.5 576.5H1664.5M1600.5 640.5V704M1600.5 640.5H1664.5M1664.5 0V0.5M1664.5 0.5V64.5M1664.5 0.5H1696M1664.5 64.5V128.5M1664.5 64.5H1696M1664.5 128.5V192.5M1664.5 128.5H1696M1664.5 192.5V256.5M1664.5 192.5H1696M1664.5 256.5V320.5M1664.5 256.5H1696M1664.5 320.5V384.5M1664.5 320.5H1696M1664.5 384.5V448.5M1664.5 384.5H1696M1664.5 448.5V512.5M1664.5 448.5H1696M1664.5 512.5V576.5M1664.5 512.5H1696M1664.5 576.5V640.5M1664.5 576.5H1696M1664.5 640.5V704M1664.5 640.5H1696M1728.5 0V704M-32 704.5H1696" stroke="url(#paint0_radial_5726_3444)"/>
</g>
<defs>
<radialGradient id="paint0_radial_5726_3444" cx="0" cy="0" r="1" gradientUnits="userSpaceOnUse" gradientTransform="translate(832.5 352.25) rotate(90) scale(352.25 896)">
<stop stop-color="#C9E651"/>
<stop offset="1" stop-color="#171717"/>
</radialGradient>
<clipPath id="clip0_5726_3444">
<rect width="1665" height="705" fill="white"/>
</clipPath>
</defs>
</svg>
