<svg width="32" height="29" viewBox="0 0 32 29" fill="none" xmlns="http://www.w3.org/2000/svg">
<path d="M13.6904 5.04688C11.0086 5.36737 9.11601 6.40942 8.01172 8.17188C6.95401 9.86006 6.40398 12.5034 6.35938 16.1025H13.5723V28.1201H0.912109V18.7471C0.912109 13.6199 1.89821 9.41356 3.87012 6.12891C5.92096 2.84429 9.19441 0.841191 13.6904 0.120117V5.04688ZM31.9121 5.04688C29.2302 5.36733 27.3367 6.40936 26.2324 8.17188C25.1748 9.86008 24.6257 12.5037 24.5811 16.1025H31.7939V28.1201H19.1338V18.7471C19.1338 13.6198 20.1198 9.41358 22.0918 6.12891C24.1427 2.84422 27.4159 0.84115 31.9121 0.120117V5.04688Z" fill="#C9E651" fill-opacity="0.15"/>
</svg>
