<svg width="7" height="5" viewBox="0 0 7 5" fill="none" xmlns="http://www.w3.org/2000/svg">
<path d="M2.73616 0.75193C2.74683 0.75193 2.70416 0.81593 2.60816 0.94393C2.52283 1.07193 2.41616 1.23193 2.28816 1.42393C2.17083 1.61593 2.0695 1.8026 1.98416 1.98393C2.17616 2.03726 2.3415 2.12793 2.48016 2.25593C2.6295 2.37326 2.7415 2.51193 2.81616 2.67193C2.9015 2.82126 2.94416 2.9706 2.94416 3.11993C2.94416 3.49326 2.8215 3.79726 2.57616 4.03193C2.3415 4.25593 2.0375 4.36793 1.66416 4.36793C1.32283 4.36793 1.01883 4.23993 0.752164 3.98393C0.496164 3.71726 0.368164 3.4026 0.368164 3.03993C0.368164 2.70926 0.442831 2.38926 0.592164 2.07993C0.741497 1.75993 0.922831 1.4666 1.13616 1.19993C1.3495 0.933263 1.55216 0.709263 1.74416 0.52793C1.93616 0.33593 2.0695 0.202597 2.14416 0.12793L2.73616 0.75193ZM6.03216 0.75193C6.04283 0.75193 6.00016 0.81593 5.90416 0.94393C5.80816 1.07193 5.69616 1.23193 5.56816 1.42393C5.45083 1.61593 5.3495 1.8026 5.26416 1.98393C5.45616 2.03726 5.6215 2.12793 5.76016 2.25593C5.9095 2.37326 6.02683 2.51193 6.11216 2.67193C6.1975 2.82126 6.24016 2.9706 6.24016 3.11993C6.24016 3.49326 6.1175 3.79726 5.87216 4.03193C5.6375 4.25593 5.32816 4.36793 4.94416 4.36793C4.6135 4.36793 4.31483 4.23993 4.04816 3.98393C3.7815 3.71726 3.64816 3.4026 3.64816 3.03993C3.64816 2.70926 3.72283 2.38926 3.87216 2.07993C4.0215 1.75993 4.20283 1.4666 4.41616 1.19993C4.6295 0.933263 4.83216 0.709263 5.02416 0.52793C5.21616 0.33593 5.35483 0.202597 5.44016 0.12793L6.03216 0.75193Z" fill="url(#paint0_linear_5964_3845)" fill-opacity="0.1"/>
<defs>
<linearGradient id="paint0_linear_5964_3845" x1="3.30416" y1="4.36793" x2="3.30416" y2="0.12793" gradientUnits="userSpaceOnUse">
<stop stop-color="#C9E651"/>
<stop offset="1" stop-color="#242814" stop-opacity="0"/>
</linearGradient>
</defs>
</svg>
