<svg width="5" height="4" viewBox="0 0 5 4" fill="none" xmlns="http://www.w3.org/2000/svg">
<path d="M2.74219 2.54677C2.74219 2.01031 2.91927 1.51813 3.27344 1.07021C3.4974 0.799376 3.67708 0.682188 3.8125 0.718647C3.9375 0.765522 4 0.835834 4 0.929584C4 1.01813 3.95833 1.11188 3.875 1.21083C3.79688 1.30979 3.73438 1.39052 3.6875 1.45302C3.64062 1.51552 3.60156 1.58323 3.57031 1.65615C3.4974 1.80198 3.46094 1.97906 3.46094 2.1874C3.58594 2.15094 3.71094 2.16656 3.83594 2.23427C4.0651 2.36448 4.17969 2.53115 4.17969 2.73427C4.17969 2.93219 4.11719 3.09365 3.99219 3.21865C3.8724 3.33844 3.70573 3.39833 3.49219 3.39833C3.27865 3.39833 3.09896 3.3176 2.95312 3.15615C2.8125 2.98948 2.74219 2.78635 2.74219 2.54677ZM0.710938 2.54677C0.710938 1.98948 0.885417 1.49729 1.23438 1.07021C1.5 0.752501 1.72135 0.656147 1.89844 0.781147C1.9349 0.807188 1.95312 0.848855 1.95312 0.906147C1.95312 1.01031 1.91406 1.11188 1.83594 1.21083C1.76302 1.30979 1.70312 1.39052 1.65625 1.45302C1.60938 1.51552 1.57031 1.58323 1.53906 1.65615C1.46615 1.80198 1.42969 1.97906 1.42969 2.1874C1.55469 2.15094 1.67708 2.16656 1.79688 2.23427C2.02083 2.36448 2.13281 2.53115 2.13281 2.73427C2.13281 2.93219 2.07292 3.09365 1.95312 3.21865C1.83333 3.33844 1.66667 3.39833 1.45312 3.39833C1.23958 3.39833 1.0625 3.3176 0.921875 3.15615C0.78125 2.98948 0.710938 2.78635 0.710938 2.54677Z" fill="url(#paint0_linear_5964_3847)"/>
<defs>
<linearGradient id="paint0_linear_5964_3847" x1="2.625" y1="0.712158" x2="2" y2="3" gradientUnits="userSpaceOnUse">
<stop stop-color="#425C16" stop-opacity="0"/>
<stop offset="1" stop-color="#BEDF29" stop-opacity="0.15"/>
</linearGradient>
</defs>
</svg>
